#!OML:ASF E:/inclinewalkrobotboard/Project1/Captureday1/Session1/subject1.ASF
:FULLY-SPECIFIED
:DEGREES
363
root 0 0 0 -0.38065187529151245 -2.0396019565739554 -3.8954154798761547
lowerback 16.58739762030468 1.082920160457191 -0.13308264392394786
upperback 0.6138259202030466 1.415886058246293 0.3173130927436879
thorax -8.710771814734942 0.6692821160503117 0.04719632409889285
lowerneck -7.484469665864421 -3.2471064437834625 1.3696171612074255
upperneck -6.469070288985581 -4.201800797873334 1.6749280501403763
head -0.8884889031652659 -2.187230688776744 0.21746485688259637
rclavicle -3.809015166466516E-16 2.0389643462587884E-17
rhumerus 12.131692541931145 0.5875178906769669 -39.38570810111745
rradius 118.96360370686043
rwrist -30.883247921862676
rhand -11.641491237178775 -36.7931619128002
rfingers 7.125019999999965
rthumb 14.4397419050495 -66.2016973839639
lclavicle -3.758058239091738E-16 -4.4058810293344916E-16
lhumerus -43.62047791694986 -0.37520242934532866 83.19513987408747
lradius 45.64905923502457
lwrist 1.7921917825412135
lhand -15.273425021503673 -13.187449060004083
lfingers 7.1250199999999415
lthumb 10.852940591555193 15.989540102065622
rfemur -2.6661770112345113 0.9907575372124047 5.328678252143952
rtibia 7.984937204938609
rfoot -1.5008677230702512 -1.2989334791132294
rtoes 0.7628967631688843
lfemur -6.461748787749359 -3.6072604255977714 -12.123592924616906
ltibia 27.300905463940932
lfoot -19.473521146358415 8.149623768096715
ltoes -43.9025929547417
364
root 0 0 0 -0.3806056616406873 -2.03966385449822 -3.895519605118044
lowerback 16.587936475273807 1.082813868116518 -0.1331608345973001
upperback 0.6133614345702705 1.4157292141585107 0.3172323353779648
thorax -8.711538275260796 0.6691983259854956 0.047146154732753076
lowerneck -7.484642247766134 -3.2470101230883235 1.3700605383834614
upperneck -6.472992781353248 -4.201599812514892 1.6745156139823019
head -0.889766828841017 -2.187187925625811 0.21731991960031177
rclavicle -3.8090364790432777E-16 2.0412394403577308E-17
rhumerus 12.131895841261837 0.5881695772291664 -39.38534457847682
rradius 118.96494646641017
rwrist -30.883843692565115
rhand -11.641208742144189 -36.794775585505576
rfingers 7.125019999999965
rthumb 14.440008616242178 -66.20325993142265
lclavicle -3.755923248790077E-16 -4.4043300530925876E-16
lhumerus -43.6223627025981 -0.37510654745811434 83.19543670007066
lradius 45.651609007072764
lwrist 1.7911650329411843
lhand -15.271317642274845 -13.194103636162003
lfingers 7.1250199999999415
lthumb 10.85494603390195 15.983145418678768
rfemur -2.665429590053029 0.9904688042796079 5.327160208054639
rtibia 7.982713391207625
rfoot -1.5004286915718374 -1.2985554171041676
rtoes 0.7626736648407539
lfemur -6.461437438569206 -3.6074767690125022 -12.122943066426894
ltibia 27.300288152418656
lfoot -19.474724256950424 8.150666518217125
ltoes -43.90606664176446
365
root 0 0 0 -0.38055926324733247 -2.03972594022506 -3.895624406344645
lowerback 16.588476355416727 1.0827076147552392 -0.13323895382547046
upperback 0.6128949979846442 1.4155724229573918 0.3171511709153064
thorax -8.712307243682845 0.6691145275541425 0.047095420284687606
lowerneck -7.4848158642428775 -3.24691379500395 1.3705049927237898
upperneck -6.476926726823272 -4.201398795037042 1.674102573633445
head -0.8910484131512213 -2.187145228565377 0.217174740869101
rclavicle -3.8090565563237837E-16 2.043525276399108E-17
rhumerus 12.1320976643904 0.588825448046304 -39.384980961131134
rradius 118.96629403398416
rwrist -30.884441769211236
rhand -11.640924266317345 -36.796398876276164
rfingers 7.125019999999965
rthumb 14.440277198740326 -66.20483177661995
lclavicle -3.7537773369267147E-16 -4.4027707564721695E-16
lhumerus -43.624257340463956 -0.3750101761970036 83.19573506813062
lradius 45.65417207876999
lwrist 1.7901329320841148
lhand -15.269199299313108 -13.200792942496328
lfingers 7.1250199999999415
lthumb 10.856961928640505 15.976717380228257
rfemur -2.664678154943756 0.990178503091093 5.325633946142087
rtibia 7.980477590170457
rfoot -1.499987270813976 -1.2981753178498079
rtoes 0.762449349351884
lfemur -6.461124363269462 -3.6076942880437626 -12.122289731085958
ltibia 27.299667491967124
lfoot -19.475933847398853 8.151714870399095
ltoes -43.90955898247652
366
root 0 0 0 -0.3805126738017184 -2.0397882216588346 -3.895729901782667
lowerback 16.589017324907672 1.0826013917370632 -0.1333170077839717
upperback 0.6124265432523577 1.4154156718146471 0.3170695864989391
thorax -8.71307882296864 0.6690307133761714 0.0470441084804436
lowerneck -7.484990544732028 -3.246817451585267 1.3709505777859343
upperneck -6.480872633218457 -4.201197727982581 1.673688884699304
head -0.8923338205434437 -2.1871025951375143 0.21702930468899784
rclavicle -3.809075388728677E-16 2.0458221750581465E-17
rhumerus 12.132298014975468 0.5894856077549484 -39.384617214064036
rradius 118.96764658584304
rwrist -30.885042231580336
rhand -11.640637762512561 -36.79803203716233
rfingers 7.125019999999965
rthumb 14.44054769710618 -66.20641316342005
lclavicle -3.7516201720709994E-16 -4.401202896996558E-16
lhumerus -43.62616212099404 -0.3749133001272936 83.19603502411877
lradius 45.656748841158155
lwrist 1.7890953210115956
lhand -15.267069668639312 -13.207518003368264
lfingers 7.1250199999999415
lthumb 10.858988584487882 15.9702550023837
rfemur -2.663922589786825 0.9898865885791255 5.3240992298145695
rtibia 7.9782294558846
rfoot -1.4995433922259593 -1.2977931225335828
rtoes 0.7622237818265163
lfemur -6.46080951267102 -3.6079130166196194 -12.12163281742993
ltibia 27.299043385918907
lfoot -19.47715010551462 8.15276898725653
ltoes -43.91307051836482
367
root 0 0 0 -0.3804658869005272 -2.039850706799619 -3.8958361100577963
lowerback 16.589559448440397 1.0824951905027773 -0.13339500257363068
upperback 0.6119560020923814 1.4152589480122866 0.3169875690319902
thorax -8.713853117453642 0.6689468761052738 0.046992206688241556
lowerneck -7.4851663192937705 -3.2467210849415578 1.3713973476441903
upperneck -6.484831014428874 -4.200996593978737 1.6732745025661995
head -0.8936232173923084 -2.1870600229577883 0.21688359496373233
rclavicle -3.809092966016372E-16 2.048130462397402E-17
rhumerus 12.132496895799477 0.5901501631817787 -39.384253302290446
rradius 118.96900430064963
rwrist -30.885645160608345
rhand -11.640349182494026 -36.79967532526514
rfingers 7.125019999999965
rthumb 14.440820156894118 -66.2080043405681
lclavicle -3.749451416654107E-16 -4.399626227594173E-16
lhumerus -43.62807734004298 -0.37481590352389527 83.19633661473736
lradius 45.65933969253468
lwrist 1.7880520378046274
lhand -15.264928420264262 -13.21427986218177
lfingers 7.1250199999999415
lthumb 10.861026315896634 15.963757282520175
rfemur -2.6631627762623316 0.9895930148154704 5.32255581797344
rtibia 7.975968635837052
rfoot -1.499096985926185 -1.2974087712219933
rtoes 0.7619969267210294
lfemur -6.460492836639675 -3.608132989318576 -12.120972222376492
ltibia 27.298415735755874
lfoot -19.47837322268593 8.153829034495365
ltoes -43.916601801207825
368
root 0 0 0 -0.380418896043235 -2.0399134037474385 -3.8959430502090027
lowerback 16.590102791259298 1.0823890025702638 -0.13347294422044054
upperback 0.6114833050930767 1.4151022389425187 0.3169051051681565
thorax -8.714630232901776 0.6688630084280734 0.046939701906670295
lowerneck -7.485343218634103 -3.246624687236481 1.3718453569154447
upperneck -6.488802390693298 -4.200795375735676 1.672859382385123
head -0.8949167720896707 -2.1870175097168727 0.21673759549447447
rclavicle -3.809109277269154E-16 2.0504504700578294E-17
rhumerus 12.13269430875335 0.5908192234254326 -39.38388919084694
rradius 118.97036735956621
rwrist -30.886250638432887
rhand -11.640058476942214 -36.80132900290553
rfingers 7.125019999999965
rthumb 14.441094624682378 -66.20960556185372
lclavicle -3.7472707267400927E-16 -4.3980404964318877E-16
lhumerus -43.63000329907047 -0.3747179703601182 83.1966398875707
lradius 45.661945038715906
lwrist 1.787002917475029
lhand -15.262775217969518 -13.221079582077405
lfingers 7.1250199999999415
lthumb 10.863075443263991 15.95722319905142
rfemur -2.6623985937710177 0.9892977349804608 5.321003464851001
rtibia 7.9736947707076755
rfoot -1.4986479806750586 -1.297022202824368
rtoes 0.7617687477999648
lfemur -6.460174284051837 -3.6083542413930827 -12.120307840855647
ltibia 27.297784441042346
lfoot -19.479603394007718 8.15489518102554
ltoes -43.92015339344822
369
root 0 0 0 -0.3803716946283858 -2.0399763207065997 -3.8960507417033856
lowerback 16.590647419191015 1.0822828195347114 -0.13355083867525952
upperback 0.6110083816674557 1.4149455321079318 0.3168221813020533
thorax -8.71541027656761 0.6687791030633982 0.046886580752059315
lowerneck -7.485521274128679 -3.2465282506882556 1.3722946607854865
upperneck -6.492787288887474 -4.200594056045291 1.6724434790555345
head -0.8962146551369337 -2.186975053182328 0.21659128997352706
rclavicle -3.8091243108785276E-16 2.0527825354547773E-17
rhumerus 12.132890254820254 0.5914928999308344 -39.383524844782016
rradius 118.97173594635413
rwrist -30.886858748439575
rhand -11.63976559541914 -36.802993337799094
rfingers 7.125019999999965
rthumb 14.441371148105898 -66.21121708627987
lclavicle -3.7450777517892573E-16 -4.3964454467427815E-16
lhumerus -43.631940305344905 -0.37461948429606606 83.19694489111727
lradius 45.66456529330934
lwrist 1.7859477918532285
lhand -15.260609719080982 -13.22791824664909
lfingers 7.1250199999999415
lthumb 10.865136293147993 15.95065171074088
rfemur -2.661629919352273 0.9890007013310216 5.319441919842895
rtibia 7.971407494124614
rfoot -1.4981963038263175 -1.2966333550512852
rtoes 0.7615392081112433
lfemur -6.459853802759055 -3.6085768087938406 -12.119639565737831
ltibia 27.29714939935596
lfoot -19.480840818415484 8.155967599076764
ltoes -43.92372586857816
